<?xml version="1.0" encoding="utf-8"?>
<!-- Generator: Adobe Illustrator 26.1.0, SVG Export Plug-In . SVG Version: 6.00 Build 0)  -->
<svg version="1.1" id="Layer_1" xmlns="http://www.w3.org/2000/svg" xmlns:xlink="http://www.w3.org/1999/xlink" x="0px" y="0px"
	 viewBox="0 0 1920 1080" style="enable-background:new 0 0 1920 1080;" xml:space="preserve">
<style type="text/css">
	.st0{fill:#F04434;stroke:#F04434;stroke-width:2;stroke-miterlimit:10;}
	.st1{fill:#F04434;stroke:#F04434;stroke-width:13;stroke-miterlimit:10;}
</style>
<g>
	<g>
		<path class="st0" d="M776.56,648.65c-12.2,0-22.82-2.57-31.84-7.71c-9.03-5.14-15.92-12.36-20.66-21.68
			c-4.75-9.31-7.12-20-7.12-32.06c0-8.28,1-16.72,3-25.32c2-8.6,4.75-16.32,8.24-23.17h2.63c12.98,0,22.88,11.6,20.86,24.41
			l-0.04,0.26c-1.36,8.6-2.03,16.61-2.03,24.03c0,10.63,2.68,19.11,8.03,25.42c5.35,6.32,12.42,9.47,21.19,9.47h6.53
			c11.28,0,19.57-3.05,24.89-9.15c5.31-6.1,7.97-14.68,7.97-25.74v-46.38c0-9.77,7.92-17.69,17.69-17.69h14.96v64.93
			c0,40.25-21.55,60.37-64.65,60.37H776.56z M783.84,539.54c-4.57,0-8.17-1.41-10.81-4.23c-2.64-2.82-3.96-6.65-3.96-11.51
			c0-4.92,1.3-8.79,3.91-11.61c2.6-2.82,6.22-4.23,10.86-4.23c4.42,0,7.94,1.39,10.54,4.18c2.6,2.78,3.91,6.67,3.91,11.67
			c0,4.86-1.34,8.69-4.01,11.51C791.6,538.13,788.12,539.54,783.84,539.54z"/>
		<path class="st0" d="M895.93,429.43L895.93,429.43c9.02,0,16.32,7.31,16.32,16.32v133.91c0,9.02-7.31,16.32-16.32,16.32l0,0
			c-9.02,0-16.32-7.31-16.32-16.32V445.75C879.61,436.74,886.91,429.43,895.93,429.43z"/>
		<path class="st0" d="M946.25,569.66h42.87c8.91,0,15.32-8.71,12.55-17.19c-1.93-5.91-4.04-11.08-6.35-15.51
			c-4.32-8.31-9.81-15.49-16.48-21.52c-4.11-3.71-8.78-7.04-14.02-9.98c-5.8-3.26-8.36-10.24-5.89-16.42l2.55-6.36
			c2.92-7.28,11.58-10.54,18.44-6.72c13.28,7.39,24.39,17.22,33.34,29.48c10.26,14.05,18.14,32.12,23.63,54.2
			c1.46,5.87,6.71,10.03,12.76,10.03h18.3c0.71,0,1.07,0.29,1.07,0.86v11.24c0,7.86-6.37,14.24-14.24,14.24H946.25
			c-7.27,0-13.17-5.89-13.17-13.17l0,0C933.09,575.55,938.98,569.66,946.25,569.66z"/>
		<path class="st0" d="M1041.58,595.99c-5.42,0-9.81-4.39-9.81-9.81v-15.66c0-0.57,0.36-0.86,1.07-0.86h25.19
			c4.83,0,8.74-3.91,8.74-8.74v-33.41c0-4.83,3.91-8.74,8.74-8.74h15.17c4.83,0,8.74,3.91,8.74,8.74v33.41
			c0,4.83,3.91,8.74,8.74,8.74h24.23c0.71,0,1.07,0.29,1.07,0.86v15.67c0,5.42-4.39,9.81-9.81,9.81H1041.58z M1069.12,650.79
			c-4.49,0-8.06-1.41-10.7-4.23c-2.64-2.82-3.96-6.65-3.96-11.51c0-4.93,1.3-8.8,3.9-11.61c2.61-2.82,6.19-4.23,10.76-4.23
			c4.5,0,8.03,1.39,10.6,4.17c2.57,2.78,3.85,6.67,3.85,11.67c0,4.99-1.32,8.86-3.96,11.61
			C1076.97,649.42,1073.47,650.79,1069.12,650.79z M1106.37,650.79c-4.49,0-8.06-1.41-10.7-4.23c-2.64-2.82-3.96-6.65-3.96-11.51
			c0-4.93,1.3-8.8,3.9-11.61c2.61-2.82,6.19-4.23,10.76-4.23s8.14,1.41,10.7,4.23c2.57,2.82,3.85,6.69,3.85,11.61
			c0,4.85-1.34,8.69-4.01,11.51C1114.24,649.38,1110.72,650.79,1106.37,650.79z"/>
		<path class="st0" d="M1162.35,595.43l-45.65,0.58c-2.78,0-5.05-2.26-5.05-5.08V570.5c0-0.56,0.35-0.84,1.08-0.84h18.96
			c0.94,0,1.77-0.31,2.44-0.87C1140.3,579.89,1149.9,588.75,1162.35,595.43z"/>
	</g>
	<path class="st1" d="M1166.85,527.93c-36,0-36-3-36,30c0,16.84-9,32,27,32c46,0,46,0,46-32
		C1203.85,522.93,1203.85,527.93,1166.85,527.93z M1166.85,582.93c-20.33,0-36.49-11.99-36.49-24.93s16.15-26.07,36.49-26.07
		c20.33,0,37.17,13.14,37.17,26.07S1187.19,582.93,1166.85,582.93z"/>
</g>
</svg>
